{
    "asset": {
        "version": "2.0",
        "generator": "Open Asset Import Library (assimp v5.0.5eb040c7)"
    },
    "accessors": [
        {
            "bufferView": 0,
            "byteOffset": 0,
            "componentType": 5126,
            "count": 20,
            "type": "VEC3",
            "max": [
                81.15705871582031,
                -41.81573486328125,
                113.14427185058594
            ],
            "min": [
                -80.51724243164063,
                -53.23895263671875,
                -105.48806762695313
            ]
        },
        {
            "bufferView": 1,
            "byteOffset": 0,
            "componentType": 5126,
            "count": 20,
            "type": "VEC2",
            "max": [
                1.0,
                1.0
            ],
            "min": [
                0.0,
                0.0
            ]
        },
        {
            "bufferView": 2,
            "byteOffset": 0,
            "componentType": 5125,
            "count": 36,
            "type": "SCALAR",
            "max": [
                19
            ],
            "min": [
                0
            ]
        },
        {
            "bufferView": 3,
            "byteOffset": 0,
            "componentType": 5126,
            "count": 20,
            "type": "VEC3",
            "max": [
                82.37904357910156,
                52.826534271240237,
                -102.64495849609375
            ],
            "min": [
                -82.62095642089844,
                -53.23895263671875,
                -109.3311767578125
            ]
        },
        {
            "bufferView": 4,
            "byteOffset": 0,
            "componentType": 5126,
            "count": 20,
            "type": "VEC2",
            "max": [
                1.0,
                1.0
            ],
            "min": [
                0.0,
                0.0
            ]
        },
        {
            "bufferView": 5,
            "byteOffset": 0,
            "componentType": 5125,
            "count": 36,
            "type": "SCALAR",
            "max": [
                19
            ],
            "min": [
                0
            ]
        },
        {
            "bufferView": 6,
            "byteOffset": 0,
            "componentType": 5126,
            "count": 484,
            "type": "VEC3",
            "max": [
                75.94429779052735,
                -21.28190040588379,
                106.35970306396485
            ],
            "min": [
                -76.84970092773438,
                -41.408599853515628,
                -103.43450164794922
            ]
        },
        {
            "bufferView": 7,
            "byteOffset": 0,
            "componentType": 5126,
            "count": 484,
            "type": "VEC2",
            "max": [
                37.862098693847659,
                19.47480010986328
            ],
            "min": [
                -36.862098693847659,
                -18.47480010986328
            ]
        },
        {
            "bufferView": 8,
            "byteOffset": 0,
            "componentType": 5125,
            "count": 2304,
            "type": "SCALAR",
            "max": [
                483
            ],
            "min": [
                0
            ]
        },
        {
            "bufferView": 9,
            "byteOffset": 0,
            "componentType": 5126,
            "count": 3696,
            "type": "VEC3",
            "max": [
                83.5615005493164,
                -12.93220043182373,
                107.2948989868164
            ],
            "min": [
                -83.3676986694336,
                -41.62070083618164,
                -82.06649780273438
            ]
        },
        {
            "bufferView": 10,
            "byteOffset": 0,
            "componentType": 5126,
            "count": 3696,
            "type": "VEC2",
            "max": [
                34.21879959106445,
                20.550800323486329
            ],
            "min": [
                -33.17720031738281,
                -19.018299102783204
            ]
        },
        {
            "bufferView": 11,
            "byteOffset": 0,
            "componentType": 5125,
            "count": 19008,
            "type": "SCALAR",
            "max": [
                3695
            ],
            "min": [
                0
            ]
        },
        {
            "bufferView": 12,
            "byteOffset": 0,
            "componentType": 5126,
            "count": 2302,
            "type": "VEC3",
            "max": [
                0.5794000029563904,
                11.678199768066407,
                -79.38069915771485
            ],
            "min": [
                -77.07019805908203,
                -25.17569923400879,
                -103.44940185546875
            ]
        },
        {
            "bufferView": 13,
            "byteOffset": 0,
            "componentType": 5126,
            "count": 2302,
            "type": "VEC2",
            "max": [
                9.982099533081055,
                9.744298934936524
            ],
            "min": [
                -8.533699989318848,
                -8.705598831176758
            ]
        },
        {
            "bufferView": 14,
            "byteOffset": 0,
            "componentType": 5125,
            "count": 12288,
            "type": "SCALAR",
            "max": [
                2301
            ],
            "min": [
                0
            ]
        },
        {
            "bufferView": 15,
            "byteOffset": 0,
            "componentType": 5126,
            "count": 2290,
            "type": "VEC3",
            "max": [
                74.29630279541016,
                12.101099967956543,
                -80.35040283203125
            ],
            "min": [
                -3.2119998931884767,
                -24.977800369262697,
                -103.53469848632813
            ]
        },
        {
            "bufferView": 16,
            "byteOffset": 0,
            "componentType": 5126,
            "count": 2290,
            "type": "VEC2",
            "max": [
                9.9621000289917,
                9.807998657226563
            ],
            "min": [
                -8.50730037689209,
                -8.739599227905274
            ]
        },
        {
            "bufferView": 17,
            "byteOffset": 0,
            "componentType": 5125,
            "count": 12288,
            "type": "SCALAR",
            "max": [
                2289
            ],
            "min": [
                0
            ]
        },
        {
            "bufferView": 18,
            "byteOffset": 0,
            "componentType": 5126,
            "count": 24,
            "type": "VEC3",
            "max": [
                77.66089630126953,
                -40.618900299072269,
                106.95829772949219
            ],
            "min": [
                -79.36229705810547,
                -43.15890121459961,
                -103.61019897460938
            ]
        },
        {
            "bufferView": 19,
            "byteOffset": 0,
            "componentType": 5126,
            "count": 24,
            "type": "VEC2",
            "max": [
                38.0,
                20.0
            ],
            "min": [
                -37.0,
                -19.0
            ]
        },
        {
            "bufferView": 20,
            "byteOffset": 0,
            "componentType": 5125,
            "count": 36,
            "type": "SCALAR",
            "max": [
                23
            ],
            "min": [
                0
            ]
        }
    ],
    "buffers": [
        {
            "byteLength": 360704,
            "uri": "result.bin"
        }
    ],
    "bufferViews": [
        {
            "buffer": 0,
            "byteOffset": 0,
            "byteLength": 240,
            "target": 34962
        },
        {
            "buffer": 0,
            "byteOffset": 240,
            "byteLength": 160,
            "target": 34962
        },
        {
            "buffer": 0,
            "byteOffset": 400,
            "byteLength": 144,
            "target": 34963
        },
        {
            "buffer": 0,
            "byteOffset": 544,
            "byteLength": 240,
            "target": 34962
        },
        {
            "buffer": 0,
            "byteOffset": 784,
            "byteLength": 160,
            "target": 34962
        },
        {
            "buffer": 0,
            "byteOffset": 944,
            "byteLength": 144,
            "target": 34963
        },
        {
            "buffer": 0,
            "byteOffset": 1088,
            "byteLength": 5808,
            "target": 34962
        },
        {
            "buffer": 0,
            "byteOffset": 6896,
            "byteLength": 3872,
            "target": 34962
        },
        {
            "buffer": 0,
            "byteOffset": 10768,
            "byteLength": 9216,
            "target": 34963
        },
        {
            "buffer": 0,
            "byteOffset": 19984,
            "byteLength": 44352,
            "target": 34962
        },
        {
            "buffer": 0,
            "byteOffset": 64336,
            "byteLength": 29568,
            "target": 34962
        },
        {
            "buffer": 0,
            "byteOffset": 93904,
            "byteLength": 76032,
            "target": 34963
        },
        {
            "buffer": 0,
            "byteOffset": 169936,
            "byteLength": 27624,
            "target": 34962
        },
        {
            "buffer": 0,
            "byteOffset": 197560,
            "byteLength": 18416,
            "target": 34962
        },
        {
            "buffer": 0,
            "byteOffset": 215976,
            "byteLength": 49152,
            "target": 34963
        },
        {
            "buffer": 0,
            "byteOffset": 265128,
            "byteLength": 27480,
            "target": 34962
        },
        {
            "buffer": 0,
            "byteOffset": 292608,
            "byteLength": 18320,
            "target": 34962
        },
        {
            "buffer": 0,
            "byteOffset": 310928,
            "byteLength": 49152,
            "target": 34963
        },
        {
            "buffer": 0,
            "byteOffset": 360080,
            "byteLength": 288,
            "target": 34962
        },
        {
            "buffer": 0,
            "byteOffset": 360368,
            "byteLength": 192,
            "target": 34962
        },
        {
            "buffer": 0,
            "byteOffset": 360560,
            "byteLength": 144,
            "target": 34963
        }
    ],
    "materials": [
        {
            "name": "DefaultMaterial",
            "pbrMetallicRoughness": {
                "baseColorFactor": [
                    0.6000000238418579,
                    0.6000000238418579,
                    0.6000000238418579,
                    1.0
                ],
                "metallicFactor": 0.0
            }
        },
        {
            "name": "Lit",
            "pbrMetallicRoughness": {
                "baseColorFactor": [
                    0.6000000238418579,
                    0.6000000238418579,
                    0.6000000238418579,
                    1.0
                ],
                "metallicFactor": 0.0
            }
        },
        {
            "name": "linge de maison",
            "pbrMetallicRoughness": {
                "baseColorFactor": [
                    0.6000000238418579,
                    0.6000000238418579,
                    0.6000000238418579,
                    1.0
                ],
                "metallicFactor": 0.0
            }
        }
    ],
    "meshes": [
        {
            "name": "Tete_de_lit",
            "primitives": [
                {
                    "mode": 4,
                    "material": 1,
                    "indices": 2,
                    "attributes": {
                        "POSITION": 0,
                        "TEXCOORD_0": 1
                    }
                }
            ]
        },
        {
            "name": "Tete_de_lit_1",
            "primitives": [
                {
                    "mode": 4,
                    "material": 1,
                    "indices": 5,
                    "attributes": {
                        "POSITION": 3,
                        "TEXCOORD_0": 4
                    }
                }
            ]
        },
        {
            "name": "Couette",
            "primitives": [
                {
                    "mode": 4,
                    "material": 2,
                    "indices": 8,
                    "attributes": {
                        "POSITION": 6,
                        "TEXCOORD_0": 7
                    }
                }
            ]
        },
        {
            "name": "Drap",
            "primitives": [
                {
                    "mode": 4,
                    "material": 2,
                    "indices": 11,
                    "attributes": {
                        "POSITION": 9,
                        "TEXCOORD_0": 10
                    }
                }
            ]
        },
        {
            "name": "Oreillet_1",
            "primitives": [
                {
                    "mode": 4,
                    "material": 2,
                    "indices": 14,
                    "attributes": {
                        "POSITION": 12,
                        "TEXCOORD_0": 13
                    }
                }
            ]
        },
        {
            "name": "Oreillet_2",
            "primitives": [
                {
                    "mode": 4,
                    "material": 2,
                    "indices": 17,
                    "attributes": {
                        "POSITION": 15,
                        "TEXCOORD_0": 16
                    }
                }
            ]
        },
        {
            "name": "Sommier",
            "primitives": [
                {
                    "mode": 4,
                    "material": 1,
                    "indices": 20,
                    "attributes": {
                        "POSITION": 18,
                        "TEXCOORD_0": 19
                    }
                }
            ]
        }
    ],
    "nodes": [
        {
            "name": "input.obj",
            "children": [
                1,
                2,
                3,
                4,
                5,
                6,
                7
            ]
        },
        {
            "name": "Tete_de_lit",
            "mesh": 0
        },
        {
            "name": "Tete_de_lit_1",
            "mesh": 1
        },
        {
            "name": "Couette",
            "mesh": 2
        },
        {
            "name": "Drap",
            "mesh": 3
        },
        {
            "name": "Oreillet_1",
            "mesh": 4
        },
        {
            "name": "Oreillet_2",
            "mesh": 5
        },
        {
            "name": "Sommier",
            "mesh": 6
        }
    ],
    "scenes": [
        {
            "nodes": [
                0
            ]
        }
    ],
    "scene": 0
}